<?xml version="1.0" standalone="no"?>
 <!DOCTYPE svg PUBLIC "-//W3C//DTD SVG 1.1//EN" 
 "http://www.w3.org/Graphics/SVG/1.1/DTD/svg11.dtd"> 
<svg
  xmlns:svg="http://www.w3.org/2000/svg"
  xmlns="http://www.w3.org/2000/svg"
  xmlns:xlink="http://www.w3.org/1999/xlink"
  version="1.1"
  width="29.700220cm" height="21.000720cm" viewBox="0 0 297002200 210007200">
<title>SVG Picture created as CircuitPWMFan-F_Fab.svg date 2022/03/24 17:49:18 </title>
  <desc>Picture generated by PCBNEW </desc>
<g style="fill:#000000; fill-opacity:1.000000;stroke:#000000; stroke-opacity:1.000000;
stroke-linecap:round; stroke-linejoin:round;"
 transform="translate(0 0) scale(1 1)">
</g>
<g style="fill:#000000; fill-opacity:0.0; 
stroke:#000000; stroke-width:0.000000; stroke-opacity:1; 
stroke-linecap:round; stroke-linejoin:round;">
</g>
<g style="fill:#000000; fill-opacity:0.0; 
stroke:#000000; stroke-width:21200.000000; stroke-opacity:1; 
stroke-linecap:round; stroke-linejoin:round;">
</g>
<g style="fill:#000000; fill-opacity:0.0; 
stroke:#000000; stroke-width:150000.000000; stroke-opacity:1; 
stroke-linecap:round; stroke-linejoin:round;">
<rect x="177002200.000000" y="166007200.000000" width="108000000.000000" height="32000000.000000" rx="0.000000" />
</g>
<g style="fill:#000000; fill-opacity:0.0; 
stroke:#000000; stroke-width:21200.000000; stroke-opacity:1; 
stroke-linecap:round; stroke-linejoin:round;">
</g>
<g style="fill:#000000; fill-opacity:0.0; 
stroke:#000000; stroke-width:150000.000000; stroke-opacity:1; 
stroke-linecap:round; stroke-linejoin:round;">
<rect x="10000000.000000" y="10000000.000000" width="277002200.000000" height="190007200.000000" rx="0.000000" />
</g>
<g style="fill:#000000; fill-opacity:0.0; 
stroke:#000000; stroke-width:21200.000000; stroke-opacity:1; 
stroke-linecap:round; stroke-linejoin:round;">
</g>
<g style="fill:#000000; fill-opacity:0.0; 
stroke:#000000; stroke-width:150000.000000; stroke-opacity:1; 
stroke-linecap:round; stroke-linejoin:round;">
<rect x="12000000.000000" y="12000000.000000" width="273002200.000000" height="186007200.000000" rx="0.000000" />
</g>
<g style="fill:#000000; fill-opacity:0.0; 
stroke:#000000; stroke-width:21200.000000; stroke-opacity:1; 
stroke-linecap:round; stroke-linejoin:round;">
</g>
<g style="fill:#000000; fill-opacity:0.0; 
stroke:#000000; stroke-width:150000.000000; stroke-opacity:1; 
stroke-linecap:round; stroke-linejoin:round;">
<path d="M60000000 12000000
L60000000 10000000
" />
</g>
<g style="fill:#000000; fill-opacity:0.0; 
stroke:#000000; stroke-width:21200.000000; stroke-opacity:1; 
stroke-linecap:round; stroke-linejoin:round;">
</g>
<g style="fill:#000000; fill-opacity:0.0; 
stroke:#000000; stroke-width:150000.000000; stroke-opacity:1; 
stroke-linecap:round; stroke-linejoin:round;">
<path d="M110000000 12000000
L110000000 10000000
" />
</g>
<g style="fill:#000000; fill-opacity:0.0; 
stroke:#000000; stroke-width:21200.000000; stroke-opacity:1; 
stroke-linecap:round; stroke-linejoin:round;">
</g>
<g style="fill:#000000; fill-opacity:0.0; 
stroke:#000000; stroke-width:150000.000000; stroke-opacity:1; 
stroke-linecap:round; stroke-linejoin:round;">
<path d="M160000000 12000000
L160000000 10000000
" />
</g>
<g style="fill:#000000; fill-opacity:0.0; 
stroke:#000000; stroke-width:21200.000000; stroke-opacity:1; 
stroke-linecap:round; stroke-linejoin:round;">
</g>
<g style="fill:#000000; fill-opacity:0.0; 
stroke:#000000; stroke-width:150000.000000; stroke-opacity:1; 
stroke-linecap:round; stroke-linejoin:round;">
<path d="M210000000 12000000
L210000000 10000000
" />
</g>
<g style="fill:#000000; fill-opacity:0.0; 
stroke:#000000; stroke-width:21200.000000; stroke-opacity:1; 
stroke-linecap:round; stroke-linejoin:round;">
</g>
<g style="fill:#000000; fill-opacity:0.0; 
stroke:#000000; stroke-width:150000.000000; stroke-opacity:1; 
stroke-linecap:round; stroke-linejoin:round;">
<path d="M260000000 12000000
L260000000 10000000
" />
</g>
<g style="fill:#000000; fill-opacity:0.0; 
stroke:#000000; stroke-width:21200.000000; stroke-opacity:1; 
stroke-linecap:round; stroke-linejoin:round;">
</g>
<g style="fill:#000000; fill-opacity:0.0; 
stroke:#000000; stroke-width:150000.000000; stroke-opacity:1; 
stroke-linecap:round; stroke-linejoin:round;">
<text x="35000000.000000" y="11650000.000000"
textLength="1388095.000000" font-size="1733333.000000" lengthAdjust="spacingAndGlyphs"
text-anchor="start" opacity="0">1</text>
<g class="stroked-text"><desc>1</desc>
<path d="M36065476 11588095
L35322619 11588095
" />
<path d="M35694047 11588095
L35694047 10288095
L35570238 10473809
L35446428 10597619
L35322619 10659523
" />
</g></g>
<g style="fill:#000000; fill-opacity:0.0; 
stroke:#000000; stroke-width:21200.000000; stroke-opacity:1; 
stroke-linecap:round; stroke-linejoin:round;">
</g>
<g style="fill:#000000; fill-opacity:0.0; 
stroke:#000000; stroke-width:150000.000000; stroke-opacity:1; 
stroke-linecap:round; stroke-linejoin:round;">
<text x="85000000.000000" y="11650000.000000"
textLength="1388095.000000" font-size="1733333.000000" lengthAdjust="spacingAndGlyphs"
text-anchor="start" opacity="0">2</text>
<g class="stroked-text"><desc>2</desc>
<path d="M85322619 10411904
L85384523 10350000
L85508333 10288095
L85817857 10288095
L85941666 10350000
L86003571 10411904
L86065476 10535714
L86065476 10659523
L86003571 10845238
L85260714 11588095
L86065476 11588095
" />
</g></g>
<g style="fill:#000000; fill-opacity:0.0; 
stroke:#000000; stroke-width:21200.000000; stroke-opacity:1; 
stroke-linecap:round; stroke-linejoin:round;">
</g>
<g style="fill:#000000; fill-opacity:0.0; 
stroke:#000000; stroke-width:150000.000000; stroke-opacity:1; 
stroke-linecap:round; stroke-linejoin:round;">
<text x="135000000.000000" y="11650000.000000"
textLength="1388095.000000" font-size="1733333.000000" lengthAdjust="spacingAndGlyphs"
text-anchor="start" opacity="0">3</text>
<g class="stroked-text"><desc>3</desc>
<path d="M135260714 10288095
L136065476 10288095
L135632142 10783333
L135817857 10783333
L135941666 10845238
L136003571 10907142
L136065476 11030952
L136065476 11340476
L136003571 11464285
L135941666 11526190
L135817857 11588095
L135446428 11588095
L135322619 11526190
L135260714 11464285
" />
</g></g>
<g style="fill:#000000; fill-opacity:0.0; 
stroke:#000000; stroke-width:21200.000000; stroke-opacity:1; 
stroke-linecap:round; stroke-linejoin:round;">
</g>
<g style="fill:#000000; fill-opacity:0.0; 
stroke:#000000; stroke-width:150000.000000; stroke-opacity:1; 
stroke-linecap:round; stroke-linejoin:round;">
<text x="185000000.000000" y="11650000.000000"
textLength="1388095.000000" font-size="1733333.000000" lengthAdjust="spacingAndGlyphs"
text-anchor="start" opacity="0">4</text>
<g class="stroked-text"><desc>4</desc>
<path d="M185941666 10721428
L185941666 11588095
" />
<path d="M185632142 10226190
L185322619 11154761
L186127380 11154761
" />
</g></g>
<g style="fill:#000000; fill-opacity:0.0; 
stroke:#000000; stroke-width:21200.000000; stroke-opacity:1; 
stroke-linecap:round; stroke-linejoin:round;">
</g>
<g style="fill:#000000; fill-opacity:0.0; 
stroke:#000000; stroke-width:150000.000000; stroke-opacity:1; 
stroke-linecap:round; stroke-linejoin:round;">
<text x="235000000.000000" y="11650000.000000"
textLength="1388095.000000" font-size="1733333.000000" lengthAdjust="spacingAndGlyphs"
text-anchor="start" opacity="0">5</text>
<g class="stroked-text"><desc>5</desc>
<path d="M236003571 10288095
L235384523 10288095
L235322619 10907142
L235384523 10845238
L235508333 10783333
L235817857 10783333
L235941666 10845238
L236003571 10907142
L236065476 11030952
L236065476 11340476
L236003571 11464285
L235941666 11526190
L235817857 11588095
L235508333 11588095
L235384523 11526190
L235322619 11464285
" />
</g></g>
<g style="fill:#000000; fill-opacity:0.0; 
stroke:#000000; stroke-width:21200.000000; stroke-opacity:1; 
stroke-linecap:round; stroke-linejoin:round;">
</g>
<g style="fill:#000000; fill-opacity:0.0; 
stroke:#000000; stroke-width:150000.000000; stroke-opacity:1; 
stroke-linecap:round; stroke-linejoin:round;">
<text x="285000000.000000" y="11650000.000000"
textLength="1388095.000000" font-size="1733333.000000" lengthAdjust="spacingAndGlyphs"
text-anchor="start" opacity="0">6</text>
<g class="stroked-text"><desc>6</desc>
<path d="M285941666 10288095
L285694047 10288095
L285570238 10350000
L285508333 10411904
L285384523 10597619
L285322619 10845238
L285322619 11340476
L285384523 11464285
L285446428 11526190
L285570238 11588095
L285817857 11588095
L285941666 11526190
L286003571 11464285
L286065476 11340476
L286065476 11030952
L286003571 10907142
L285941666 10845238
L285817857 10783333
L285570238 10783333
L285446428 10845238
L285384523 10907142
L285322619 11030952
" />
</g></g>
<g style="fill:#000000; fill-opacity:0.0; 
stroke:#000000; stroke-width:21200.000000; stroke-opacity:1; 
stroke-linecap:round; stroke-linejoin:round;">
</g>
<g style="fill:#000000; fill-opacity:0.0; 
stroke:#000000; stroke-width:150000.000000; stroke-opacity:1; 
stroke-linecap:round; stroke-linejoin:round;">
<path d="M60000000 198007200
L60000000 200007200
" />
</g>
<g style="fill:#000000; fill-opacity:0.0; 
stroke:#000000; stroke-width:21200.000000; stroke-opacity:1; 
stroke-linecap:round; stroke-linejoin:round;">
</g>
<g style="fill:#000000; fill-opacity:0.0; 
stroke:#000000; stroke-width:150000.000000; stroke-opacity:1; 
stroke-linecap:round; stroke-linejoin:round;">
<path d="M110000000 198007200
L110000000 200007200
" />
</g>
<g style="fill:#000000; fill-opacity:0.0; 
stroke:#000000; stroke-width:21200.000000; stroke-opacity:1; 
stroke-linecap:round; stroke-linejoin:round;">
</g>
<g style="fill:#000000; fill-opacity:0.0; 
stroke:#000000; stroke-width:150000.000000; stroke-opacity:1; 
stroke-linecap:round; stroke-linejoin:round;">
<path d="M160000000 198007200
L160000000 200007200
" />
</g>
<g style="fill:#000000; fill-opacity:0.0; 
stroke:#000000; stroke-width:21200.000000; stroke-opacity:1; 
stroke-linecap:round; stroke-linejoin:round;">
</g>
<g style="fill:#000000; fill-opacity:0.0; 
stroke:#000000; stroke-width:150000.000000; stroke-opacity:1; 
stroke-linecap:round; stroke-linejoin:round;">
<path d="M210000000 198007200
L210000000 200007200
" />
</g>
<g style="fill:#000000; fill-opacity:0.0; 
stroke:#000000; stroke-width:21200.000000; stroke-opacity:1; 
stroke-linecap:round; stroke-linejoin:round;">
</g>
<g style="fill:#000000; fill-opacity:0.0; 
stroke:#000000; stroke-width:150000.000000; stroke-opacity:1; 
stroke-linecap:round; stroke-linejoin:round;">
<path d="M260000000 198007200
L260000000 200007200
" />
</g>
<g style="fill:#000000; fill-opacity:0.0; 
stroke:#000000; stroke-width:21200.000000; stroke-opacity:1; 
stroke-linecap:round; stroke-linejoin:round;">
</g>
<g style="fill:#000000; fill-opacity:0.0; 
stroke:#000000; stroke-width:150000.000000; stroke-opacity:1; 
stroke-linecap:round; stroke-linejoin:round;">
<text x="35000000.000000" y="199657200.000000"
textLength="1388095.000000" font-size="1733333.000000" lengthAdjust="spacingAndGlyphs"
text-anchor="start" opacity="0">1</text>
<g class="stroked-text"><desc>1</desc>
<path d="M36065476 199595295
L35322619 199595295
" />
<path d="M35694047 199595295
L35694047 198295295
L35570238 198481009
L35446428 198604819
L35322619 198666723
" />
</g></g>
<g style="fill:#000000; fill-opacity:0.0; 
stroke:#000000; stroke-width:21200.000000; stroke-opacity:1; 
stroke-linecap:round; stroke-linejoin:round;">
</g>
<g style="fill:#000000; fill-opacity:0.0; 
stroke:#000000; stroke-width:150000.000000; stroke-opacity:1; 
stroke-linecap:round; stroke-linejoin:round;">
<text x="85000000.000000" y="199657200.000000"
textLength="1388095.000000" font-size="1733333.000000" lengthAdjust="spacingAndGlyphs"
text-anchor="start" opacity="0">2</text>
<g class="stroked-text"><desc>2</desc>
<path d="M85322619 198419104
L85384523 198357200
L85508333 198295295
L85817857 198295295
L85941666 198357200
L86003571 198419104
L86065476 198542914
L86065476 198666723
L86003571 198852438
L85260714 199595295
L86065476 199595295
" />
</g></g>
<g style="fill:#000000; fill-opacity:0.0; 
stroke:#000000; stroke-width:21200.000000; stroke-opacity:1; 
stroke-linecap:round; stroke-linejoin:round;">
</g>
<g style="fill:#000000; fill-opacity:0.0; 
stroke:#000000; stroke-width:150000.000000; stroke-opacity:1; 
stroke-linecap:round; stroke-linejoin:round;">
<text x="135000000.000000" y="199657200.000000"
textLength="1388095.000000" font-size="1733333.000000" lengthAdjust="spacingAndGlyphs"
text-anchor="start" opacity="0">3</text>
<g class="stroked-text"><desc>3</desc>
<path d="M135260714 198295295
L136065476 198295295
L135632142 198790533
L135817857 198790533
L135941666 198852438
L136003571 198914342
L136065476 199038152
L136065476 199347676
L136003571 199471485
L135941666 199533390
L135817857 199595295
L135446428 199595295
L135322619 199533390
L135260714 199471485
" />
</g></g>
<g style="fill:#000000; fill-opacity:0.0; 
stroke:#000000; stroke-width:21200.000000; stroke-opacity:1; 
stroke-linecap:round; stroke-linejoin:round;">
</g>
<g style="fill:#000000; fill-opacity:0.0; 
stroke:#000000; stroke-width:150000.000000; stroke-opacity:1; 
stroke-linecap:round; stroke-linejoin:round;">
<text x="185000000.000000" y="199657200.000000"
textLength="1388095.000000" font-size="1733333.000000" lengthAdjust="spacingAndGlyphs"
text-anchor="start" opacity="0">4</text>
<g class="stroked-text"><desc>4</desc>
<path d="M185941666 198728628
L185941666 199595295
" />
<path d="M185632142 198233390
L185322619 199161961
L186127380 199161961
" />
</g></g>
<g style="fill:#000000; fill-opacity:0.0; 
stroke:#000000; stroke-width:21200.000000; stroke-opacity:1; 
stroke-linecap:round; stroke-linejoin:round;">
</g>
<g style="fill:#000000; fill-opacity:0.0; 
stroke:#000000; stroke-width:150000.000000; stroke-opacity:1; 
stroke-linecap:round; stroke-linejoin:round;">
<text x="235000000.000000" y="199657200.000000"
textLength="1388095.000000" font-size="1733333.000000" lengthAdjust="spacingAndGlyphs"
text-anchor="start" opacity="0">5</text>
<g class="stroked-text"><desc>5</desc>
<path d="M236003571 198295295
L235384523 198295295
L235322619 198914342
L235384523 198852438
L235508333 198790533
L235817857 198790533
L235941666 198852438
L236003571 198914342
L236065476 199038152
L236065476 199347676
L236003571 199471485
L235941666 199533390
L235817857 199595295
L235508333 199595295
L235384523 199533390
L235322619 199471485
" />
</g></g>
<g style="fill:#000000; fill-opacity:0.0; 
stroke:#000000; stroke-width:21200.000000; stroke-opacity:1; 
stroke-linecap:round; stroke-linejoin:round;">
</g>
<g style="fill:#000000; fill-opacity:0.0; 
stroke:#000000; stroke-width:150000.000000; stroke-opacity:1; 
stroke-linecap:round; stroke-linejoin:round;">
<text x="285000000.000000" y="199657200.000000"
textLength="1388095.000000" font-size="1733333.000000" lengthAdjust="spacingAndGlyphs"
text-anchor="start" opacity="0">6</text>
<g class="stroked-text"><desc>6</desc>
<path d="M285941666 198295295
L285694047 198295295
L285570238 198357200
L285508333 198419104
L285384523 198604819
L285322619 198852438
L285322619 199347676
L285384523 199471485
L285446428 199533390
L285570238 199595295
L285817857 199595295
L285941666 199533390
L286003571 199471485
L286065476 199347676
L286065476 199038152
L286003571 198914342
L285941666 198852438
L285817857 198790533
L285570238 198790533
L285446428 198852438
L285384523 198914342
L285322619 199038152
" />
</g></g>
<g style="fill:#000000; fill-opacity:0.0; 
stroke:#000000; stroke-width:21200.000000; stroke-opacity:1; 
stroke-linecap:round; stroke-linejoin:round;">
</g>
<g style="fill:#000000; fill-opacity:0.0; 
stroke:#000000; stroke-width:150000.000000; stroke-opacity:1; 
stroke-linecap:round; stroke-linejoin:round;">
<path d="M10000000 60000000
L12000000 60000000
" />
</g>
<g style="fill:#000000; fill-opacity:0.0; 
stroke:#000000; stroke-width:21200.000000; stroke-opacity:1; 
stroke-linecap:round; stroke-linejoin:round;">
</g>
<g style="fill:#000000; fill-opacity:0.0; 
stroke:#000000; stroke-width:150000.000000; stroke-opacity:1; 
stroke-linecap:round; stroke-linejoin:round;">
<path d="M10000000 110000000
L12000000 110000000
" />
</g>
<g style="fill:#000000; fill-opacity:0.0; 
stroke:#000000; stroke-width:21200.000000; stroke-opacity:1; 
stroke-linecap:round; stroke-linejoin:round;">
</g>
<g style="fill:#000000; fill-opacity:0.0; 
stroke:#000000; stroke-width:150000.000000; stroke-opacity:1; 
stroke-linecap:round; stroke-linejoin:round;">
<path d="M10000000 160000000
L12000000 160000000
" />
</g>
<g style="fill:#000000; fill-opacity:0.0; 
stroke:#000000; stroke-width:21200.000000; stroke-opacity:1; 
stroke-linecap:round; stroke-linejoin:round;">
</g>
<g style="fill:#000000; fill-opacity:0.0; 
stroke:#000000; stroke-width:150000.000000; stroke-opacity:1; 
stroke-linecap:round; stroke-linejoin:round;">
<text x="11000000.000000" y="35650000.000000"
textLength="1264286.000000" font-size="1733333.000000" lengthAdjust="spacingAndGlyphs"
text-anchor="middle" opacity="0">A</text>
<g class="stroked-text"><desc>A</desc>
<path d="M10690476 35216666
L11309523 35216666
" />
<path d="M10566666 35588095
L11000000 34288095
L11433333 35588095
" />
</g></g>
<g style="fill:#000000; fill-opacity:0.0; 
stroke:#000000; stroke-width:21200.000000; stroke-opacity:1; 
stroke-linecap:round; stroke-linejoin:round;">
</g>
<g style="fill:#000000; fill-opacity:0.0; 
stroke:#000000; stroke-width:150000.000000; stroke-opacity:1; 
stroke-linecap:round; stroke-linejoin:round;">
<text x="11000000.000000" y="85650000.000000"
textLength="1450000.000000" font-size="1733333.000000" lengthAdjust="spacingAndGlyphs"
text-anchor="middle" opacity="0">B</text>
<g class="stroked-text"><desc>B</desc>
<path d="M11092857 84907142
L11278571 84969047
L11340476 85030952
L11402380 85154761
L11402380 85340476
L11340476 85464285
L11278571 85526190
L11154761 85588095
L10659523 85588095
L10659523 84288095
L11092857 84288095
L11216666 84350000
L11278571 84411904
L11340476 84535714
L11340476 84659523
L11278571 84783333
L11216666 84845238
L11092857 84907142
L10659523 84907142
" />
</g></g>
<g style="fill:#000000; fill-opacity:0.0; 
stroke:#000000; stroke-width:21200.000000; stroke-opacity:1; 
stroke-linecap:round; stroke-linejoin:round;">
</g>
<g style="fill:#000000; fill-opacity:0.0; 
stroke:#000000; stroke-width:150000.000000; stroke-opacity:1; 
stroke-linecap:round; stroke-linejoin:round;">
<text x="11000000.000000" y="135650000.000000"
textLength="1450000.000000" font-size="1733333.000000" lengthAdjust="spacingAndGlyphs"
text-anchor="middle" opacity="0">C</text>
<g class="stroked-text"><desc>C</desc>
<path d="M11402380 135464285
L11340476 135526190
L11154761 135588095
L11030952 135588095
L10845238 135526190
L10721428 135402380
L10659523 135278571
L10597619 135030952
L10597619 134845238
L10659523 134597619
L10721428 134473809
L10845238 134350000
L11030952 134288095
L11154761 134288095
L11340476 134350000
L11402380 134411904
" />
</g></g>
<g style="fill:#000000; fill-opacity:0.0; 
stroke:#000000; stroke-width:21200.000000; stroke-opacity:1; 
stroke-linecap:round; stroke-linejoin:round;">
</g>
<g style="fill:#000000; fill-opacity:0.0; 
stroke:#000000; stroke-width:150000.000000; stroke-opacity:1; 
stroke-linecap:round; stroke-linejoin:round;">
<text x="11000000.000000" y="185650000.000000"
textLength="1450000.000000" font-size="1733333.000000" lengthAdjust="spacingAndGlyphs"
text-anchor="middle" opacity="0">D</text>
<g class="stroked-text"><desc>D</desc>
<path d="M10659523 185588095
L10659523 184288095
L10969047 184288095
L11154761 184350000
L11278571 184473809
L11340476 184597619
L11402380 184845238
L11402380 185030952
L11340476 185278571
L11278571 185402380
L11154761 185526190
L10969047 185588095
L10659523 185588095
" />
</g></g>
<g style="fill:#000000; fill-opacity:0.0; 
stroke:#000000; stroke-width:21200.000000; stroke-opacity:1; 
stroke-linecap:round; stroke-linejoin:round;">
</g>
<g style="fill:#000000; fill-opacity:0.0; 
stroke:#000000; stroke-width:150000.000000; stroke-opacity:1; 
stroke-linecap:round; stroke-linejoin:round;">
<path d="M287002200 60000000
L285002200 60000000
" />
</g>
<g style="fill:#000000; fill-opacity:0.0; 
stroke:#000000; stroke-width:21200.000000; stroke-opacity:1; 
stroke-linecap:round; stroke-linejoin:round;">
</g>
<g style="fill:#000000; fill-opacity:0.0; 
stroke:#000000; stroke-width:150000.000000; stroke-opacity:1; 
stroke-linecap:round; stroke-linejoin:round;">
<path d="M287002200 110000000
L285002200 110000000
" />
</g>
<g style="fill:#000000; fill-opacity:0.0; 
stroke:#000000; stroke-width:21200.000000; stroke-opacity:1; 
stroke-linecap:round; stroke-linejoin:round;">
</g>
<g style="fill:#000000; fill-opacity:0.0; 
stroke:#000000; stroke-width:150000.000000; stroke-opacity:1; 
stroke-linecap:round; stroke-linejoin:round;">
<path d="M287002200 160000000
L285002200 160000000
" />
</g>
<g style="fill:#000000; fill-opacity:0.0; 
stroke:#000000; stroke-width:21200.000000; stroke-opacity:1; 
stroke-linecap:round; stroke-linejoin:round;">
</g>
<g style="fill:#000000; fill-opacity:0.0; 
stroke:#000000; stroke-width:150000.000000; stroke-opacity:1; 
stroke-linecap:round; stroke-linejoin:round;">
<text x="286002200.000000" y="35650000.000000"
textLength="1264286.000000" font-size="1733333.000000" lengthAdjust="spacingAndGlyphs"
text-anchor="middle" opacity="0">A</text>
<g class="stroked-text"><desc>A</desc>
<path d="M285692676 35216666
L286311723 35216666
" />
<path d="M285568866 35588095
L286002200 34288095
L286435533 35588095
" />
</g></g>
<g style="fill:#000000; fill-opacity:0.0; 
stroke:#000000; stroke-width:21200.000000; stroke-opacity:1; 
stroke-linecap:round; stroke-linejoin:round;">
</g>
<g style="fill:#000000; fill-opacity:0.0; 
stroke:#000000; stroke-width:150000.000000; stroke-opacity:1; 
stroke-linecap:round; stroke-linejoin:round;">
<text x="286002200.000000" y="85650000.000000"
textLength="1450000.000000" font-size="1733333.000000" lengthAdjust="spacingAndGlyphs"
text-anchor="middle" opacity="0">B</text>
<g class="stroked-text"><desc>B</desc>
<path d="M286095057 84907142
L286280771 84969047
L286342676 85030952
L286404580 85154761
L286404580 85340476
L286342676 85464285
L286280771 85526190
L286156961 85588095
L285661723 85588095
L285661723 84288095
L286095057 84288095
L286218866 84350000
L286280771 84411904
L286342676 84535714
L286342676 84659523
L286280771 84783333
L286218866 84845238
L286095057 84907142
L285661723 84907142
" />
</g></g>
<g style="fill:#000000; fill-opacity:0.0; 
stroke:#000000; stroke-width:21200.000000; stroke-opacity:1; 
stroke-linecap:round; stroke-linejoin:round;">
</g>
<g style="fill:#000000; fill-opacity:0.0; 
stroke:#000000; stroke-width:150000.000000; stroke-opacity:1; 
stroke-linecap:round; stroke-linejoin:round;">
<text x="286002200.000000" y="135650000.000000"
textLength="1450000.000000" font-size="1733333.000000" lengthAdjust="spacingAndGlyphs"
text-anchor="middle" opacity="0">C</text>
<g class="stroked-text"><desc>C</desc>
<path d="M286404580 135464285
L286342676 135526190
L286156961 135588095
L286033152 135588095
L285847438 135526190
L285723628 135402380
L285661723 135278571
L285599819 135030952
L285599819 134845238
L285661723 134597619
L285723628 134473809
L285847438 134350000
L286033152 134288095
L286156961 134288095
L286342676 134350000
L286404580 134411904
" />
</g></g>
<g style="fill:#000000; fill-opacity:0.0; 
stroke:#000000; stroke-width:21200.000000; stroke-opacity:1; 
stroke-linecap:round; stroke-linejoin:round;">
</g>
<g style="fill:#000000; fill-opacity:0.0; 
stroke:#000000; stroke-width:150000.000000; stroke-opacity:1; 
stroke-linecap:round; stroke-linejoin:round;">
<text x="286002200.000000" y="185650000.000000"
textLength="1450000.000000" font-size="1733333.000000" lengthAdjust="spacingAndGlyphs"
text-anchor="middle" opacity="0">D</text>
<g class="stroked-text"><desc>D</desc>
<path d="M285661723 185588095
L285661723 184288095
L285971247 184288095
L286156961 184350000
L286280771 184473809
L286342676 184597619
L286404580 184845238
L286404580 185030952
L286342676 185278571
L286280771 185402380
L286156961 185526190
L285971247 185588095
L285661723 185588095
" />
</g></g>
<g style="fill:#000000; fill-opacity:0.0; 
stroke:#000000; stroke-width:21200.000000; stroke-opacity:1; 
stroke-linecap:round; stroke-linejoin:round;">
</g>
<g style="fill:#000000; fill-opacity:0.0; 
stroke:#000000; stroke-width:150000.000000; stroke-opacity:1; 
stroke-linecap:round; stroke-linejoin:round;">
<text x="200002200.000000" y="193857200.000000"
textLength="7007143.000000" font-size="2000000.000000" lengthAdjust="spacingAndGlyphs"
text-anchor="start" opacity="0">Date: </text>
<g class="stroked-text"><desc>Date: </desc>
<path d="M200434342 193785771
L200434342 192285771
L200791485 192285771
L201005771 192357200
L201148628 192500057
L201220057 192642914
L201291485 192928628
L201291485 193142914
L201220057 193428628
L201148628 193571485
L201005771 193714342
L200791485 193785771
L200434342 193785771
" />
<path d="M202577200 193785771
L202577200 193000057
L202505771 192857200
L202362914 192785771
L202077200 192785771
L201934342 192857200
" />
<path d="M202577200 193714342
L202434342 193785771
L202077200 193785771
L201934342 193714342
L201862914 193571485
L201862914 193428628
L201934342 193285771
L202077200 193214342
L202434342 193214342
L202577200 193142914
" />
<path d="M203077200 192785771
L203648628 192785771
" />
<path d="M203291485 192285771
L203291485 193571485
L203362914 193714342
L203505771 193785771
L203648628 193785771
" />
<path d="M204720057 193714342
L204577200 193785771
L204291485 193785771
L204148628 193714342
L204077200 193571485
L204077200 193000057
L204148628 192857200
L204291485 192785771
L204577200 192785771
L204720057 192857200
L204791485 193000057
L204791485 193142914
L204077200 193285771
" />
<path d="M205434342 193642914
L205505771 193714342
L205434342 193785771
L205362914 193714342
L205434342 193642914
L205434342 193785771
" />
<path d="M205434342 192857200
L205505771 192928628
L205434342 193000057
L205362914 192928628
L205434342 192857200
L205434342 193000057
" />
</g></g>
<g style="fill:#000000; fill-opacity:0.0; 
stroke:#000000; stroke-width:21200.000000; stroke-opacity:1; 
stroke-linecap:round; stroke-linejoin:round;">
</g>
<g style="fill:#000000; fill-opacity:0.0; 
stroke:#000000; stroke-width:150000.000000; stroke-opacity:1; 
stroke-linecap:round; stroke-linejoin:round;">
<path d="M177002200 194507200
L285002200 194507200
" />
</g>
<g style="fill:#000000; fill-opacity:0.0; 
stroke:#000000; stroke-width:21200.000000; stroke-opacity:1; 
stroke-linecap:round; stroke-linejoin:round;">
</g>
<g style="fill:#000000; fill-opacity:0.0; 
stroke:#000000; stroke-width:150000.000000; stroke-opacity:1; 
stroke-linecap:round; stroke-linejoin:round;">
<text x="178002200.000000" y="196657200.000000"
textLength="31078571.000000" font-size="2000000.000000" lengthAdjust="spacingAndGlyphs"
text-anchor="start" opacity="0">KiCad E.D.A.  kicad (6.0.4)</text>
<g class="stroked-text"><desc>KiCad E.D.A.  kicad (6.0.4)</desc>
<path d="M178434342 196585771
L178434342 195085771
" />
<path d="M179291485 196585771
L178648628 195728628
" />
<path d="M179291485 195085771
L178434342 195942914
" />
<path d="M179934342 196585771
L179934342 195585771
" />
<path d="M179934342 195085771
L179862914 195157200
L179934342 195228628
L180005771 195157200
L179934342 195085771
L179934342 195228628
" />
<path d="M181505771 196442914
L181434342 196514342
L181220057 196585771
L181077200 196585771
L180862914 196514342
L180720057 196371485
L180648628 196228628
L180577200 195942914
L180577200 195728628
L180648628 195442914
L180720057 195300057
L180862914 195157200
L181077200 195085771
L181220057 195085771
L181434342 195157200
L181505771 195228628
" />
<path d="M182791485 196585771
L182791485 195800057
L182720057 195657200
L182577200 195585771
L182291485 195585771
L182148628 195657200
" />
<path d="M182791485 196514342
L182648628 196585771
L182291485 196585771
L182148628 196514342
L182077200 196371485
L182077200 196228628
L182148628 196085771
L182291485 196014342
L182648628 196014342
L182791485 195942914
" />
<path d="M184148628 196585771
L184148628 195085771
" />
<path d="M184148628 196514342
L184005771 196585771
L183720057 196585771
L183577200 196514342
L183505771 196442914
L183434342 196300057
L183434342 195871485
L183505771 195728628
L183577200 195657200
L183720057 195585771
L184005771 195585771
L184148628 195657200
" />
<path d="M186005771 195800057
L186505771 195800057
" />
<path d="M186720057 196585771
L186005771 196585771
L186005771 195085771
L186720057 195085771
" />
<path d="M187362914 196442914
L187434342 196514342
L187362914 196585771
L187291485 196514342
L187362914 196442914
L187362914 196585771
" />
<path d="M188077200 196585771
L188077200 195085771
L188434342 195085771
L188648628 195157200
L188791485 195300057
L188862914 195442914
L188934342 195728628
L188934342 195942914
L188862914 196228628
L188791485 196371485
L188648628 196514342
L188434342 196585771
L188077200 196585771
" />
<path d="M189577200 196442914
L189648628 196514342
L189577200 196585771
L189505771 196514342
L189577200 196442914
L189577200 196585771
" />
<path d="M190220057 196157200
L190934342 196157200
" />
<path d="M190077200 196585771
L190577200 195085771
L191077200 196585771
" />
<path d="M191577200 196442914
L191648628 196514342
L191577200 196585771
L191505771 196514342
L191577200 196442914
L191577200 196585771
" />
<path d="M194577200 196585771
L194577200 195085771
" />
<path d="M194720057 196014342
L195148628 196585771
" />
<path d="M195148628 195585771
L194577200 196157200
" />
<path d="M195791485 196585771
L195791485 195585771
" />
<path d="M195791485 195085771
L195720057 195157200
L195791485 195228628
L195862914 195157200
L195791485 195085771
L195791485 195228628
" />
<path d="M197148628 196514342
L197005771 196585771
L196720057 196585771
L196577200 196514342
L196505771 196442914
L196434342 196300057
L196434342 195871485
L196505771 195728628
L196577200 195657200
L196720057 195585771
L197005771 195585771
L197148628 195657200
" />
<path d="M198434342 196585771
L198434342 195800057
L198362914 195657200
L198220057 195585771
L197934342 195585771
L197791485 195657200
" />
<path d="M198434342 196514342
L198291485 196585771
L197934342 196585771
L197791485 196514342
L197720057 196371485
L197720057 196228628
L197791485 196085771
L197934342 196014342
L198291485 196014342
L198434342 195942914
" />
<path d="M199791485 196585771
L199791485 195085771
" />
<path d="M199791485 196514342
L199648628 196585771
L199362914 196585771
L199220057 196514342
L199148628 196442914
L199077200 196300057
L199077200 195871485
L199148628 195728628
L199220057 195657200
L199362914 195585771
L199648628 195585771
L199791485 195657200
" />
<path d="M202077200 197157200
L202005771 197085771
L201862914 196871485
L201791485 196728628
L201720057 196514342
L201648628 196157200
L201648628 195871485
L201720057 195514342
L201791485 195300057
L201862914 195157200
L202005771 194942914
L202077200 194871485
" />
<path d="M203291485 195085771
L203005771 195085771
L202862914 195157200
L202791485 195228628
L202648628 195442914
L202577200 195728628
L202577200 196300057
L202648628 196442914
L202720057 196514342
L202862914 196585771
L203148628 196585771
L203291485 196514342
L203362914 196442914
L203434342 196300057
L203434342 195942914
L203362914 195800057
L203291485 195728628
L203148628 195657200
L202862914 195657200
L202720057 195728628
L202648628 195800057
L202577200 195942914
" />
<path d="M204077200 196442914
L204148628 196514342
L204077200 196585771
L204005771 196514342
L204077200 196442914
L204077200 196585771
" />
<path d="M205077200 195085771
L205220057 195085771
L205362914 195157200
L205434342 195228628
L205505771 195371485
L205577200 195657200
L205577200 196014342
L205505771 196300057
L205434342 196442914
L205362914 196514342
L205220057 196585771
L205077200 196585771
L204934342 196514342
L204862914 196442914
L204791485 196300057
L204720057 196014342
L204720057 195657200
L204791485 195371485
L204862914 195228628
L204934342 195157200
L205077200 195085771
" />
<path d="M206220057 196442914
L206291485 196514342
L206220057 196585771
L206148628 196514342
L206220057 196442914
L206220057 196585771
" />
<path d="M207577200 195585771
L207577200 196585771
" />
<path d="M207220057 195014342
L206862914 196085771
L207791485 196085771
" />
<path d="M208220057 197157200
L208291485 197085771
L208434342 196871485
L208505771 196728628
L208577200 196514342
L208648628 196157200
L208648628 195871485
L208577200 195514342
L208505771 195300057
L208434342 195157200
L208291485 194942914
L208220057 194871485
" />
</g></g>
<g style="fill:#000000; fill-opacity:0.0; 
stroke:#000000; stroke-width:21200.000000; stroke-opacity:1; 
stroke-linecap:round; stroke-linejoin:round;">
</g>
<g style="fill:#000000; fill-opacity:0.0; 
stroke:#000000; stroke-width:150000.000000; stroke-opacity:1; 
stroke-linecap:round; stroke-linejoin:round;">
<path d="M177002200 191507200
L285002200 191507200
" />
</g>
<g style="fill:#000000; fill-opacity:0.0; 
stroke:#000000; stroke-width:21200.000000; stroke-opacity:1; 
stroke-linecap:round; stroke-linejoin:round;">
</g>
<g style="fill:#000000; fill-opacity:0.0; 
stroke:#000000; stroke-width:300000.000000; stroke-opacity:1; 
stroke-linecap:round; stroke-linejoin:round;">
<text x="263002200.000000" y="193857200.000000"
textLength="5935714.000000" font-size="2000000.000000" lengthAdjust="spacingAndGlyphs"
text-anchor="start" opacity="0">Rev: </text>
<g class="stroked-text"><desc>Rev: </desc>
<path d="M264411485 193785771
L263911485 193071485
" />
<path d="M263554342 193785771
L263554342 192285771
L264125771 192285771
L264268628 192357200
L264340057 192428628
L264411485 192571485
L264411485 192785771
L264340057 192928628
L264268628 193000057
L264125771 193071485
L263554342 193071485
" />
<path d="M265625771 193714342
L265482914 193785771
L265197200 193785771
L265054342 193714342
L264982914 193571485
L264982914 193000057
L265054342 192857200
L265197200 192785771
L265482914 192785771
L265625771 192857200
L265697200 193000057
L265697200 193142914
L264982914 193285771
" />
<path d="M266197200 192785771
L266554342 193785771
L266911485 192785771
" />
<path d="M267482914 193642914
L267554342 193714342
L267482914 193785771
L267411485 193714342
L267482914 193642914
L267482914 193785771
" />
<path d="M267482914 192857200
L267554342 192928628
L267482914 193000057
L267411485 192928628
L267482914 192857200
L267482914 193000057
" />
</g></g>
<g style="fill:#000000; fill-opacity:0.0; 
stroke:#000000; stroke-width:21200.000000; stroke-opacity:1; 
stroke-linecap:round; stroke-linejoin:round;">
</g>
<g style="fill:#000000; fill-opacity:0.0; 
stroke:#000000; stroke-width:150000.000000; stroke-opacity:1; 
stroke-linecap:round; stroke-linejoin:round;">
<text x="178002200.000000" y="193857200.000000"
textLength="9604286.000000" font-size="2000000.000000" lengthAdjust="spacingAndGlyphs"
text-anchor="start" opacity="0">Size: A4</text>
<g class="stroked-text"><desc>Size: A4</desc>
<path d="M178362914 193714342
L178577200 193785771
L178934342 193785771
L179077200 193714342
L179148628 193642914
L179220057 193500057
L179220057 193357200
L179148628 193214342
L179077200 193142914
L178934342 193071485
L178648628 193000057
L178505771 192928628
L178434342 192857200
L178362914 192714342
L178362914 192571485
L178434342 192428628
L178505771 192357200
L178648628 192285771
L179005771 192285771
L179220057 192357200
" />
<path d="M179862914 193785771
L179862914 192785771
" />
<path d="M179862914 192285771
L179791485 192357200
L179862914 192428628
L179934342 192357200
L179862914 192285771
L179862914 192428628
" />
<path d="M180434342 192785771
L181220057 192785771
L180434342 193785771
L181220057 193785771
" />
<path d="M182362914 193714342
L182220057 193785771
L181934342 193785771
L181791485 193714342
L181720057 193571485
L181720057 193000057
L181791485 192857200
L181934342 192785771
L182220057 192785771
L182362914 192857200
L182434342 193000057
L182434342 193142914
L181720057 193285771
" />
<path d="M183077200 193642914
L183148628 193714342
L183077200 193785771
L183005771 193714342
L183077200 193642914
L183077200 193785771
" />
<path d="M183077200 192857200
L183148628 192928628
L183077200 193000057
L183005771 192928628
L183077200 192857200
L183077200 193000057
" />
<path d="M184862914 193357200
L185577200 193357200
" />
<path d="M184720057 193785771
L185220057 192285771
L185720057 193785771
" />
<path d="M186862914 192785771
L186862914 193785771
" />
<path d="M186505771 192214342
L186148628 193285771
L187077200 193285771
" />
</g></g>
<g style="fill:#000000; fill-opacity:0.0; 
stroke:#000000; stroke-width:21200.000000; stroke-opacity:1; 
stroke-linecap:round; stroke-linejoin:round;">
</g>
<g style="fill:#000000; fill-opacity:0.0; 
stroke:#000000; stroke-width:150000.000000; stroke-opacity:1; 
stroke-linecap:round; stroke-linejoin:round;">
<text x="263002200.000000" y="196657200.000000"
textLength="8507143.000000" font-size="2000000.000000" lengthAdjust="spacingAndGlyphs"
text-anchor="start" opacity="0">Id: 1/1</text>
<g class="stroked-text"><desc>Id: 1/1</desc>
<path d="M263434342 196585771
L263434342 195085771
" />
<path d="M264791485 196585771
L264791485 195085771
" />
<path d="M264791485 196514342
L264648628 196585771
L264362914 196585771
L264220057 196514342
L264148628 196442914
L264077200 196300057
L264077200 195871485
L264148628 195728628
L264220057 195657200
L264362914 195585771
L264648628 195585771
L264791485 195657200
" />
<path d="M265505771 196442914
L265577200 196514342
L265505771 196585771
L265434342 196514342
L265505771 196442914
L265505771 196585771
" />
<path d="M265505771 195657200
L265577200 195728628
L265505771 195800057
L265434342 195728628
L265505771 195657200
L265505771 195800057
" />
<path d="M268148628 196585771
L267291485 196585771
" />
<path d="M267720057 196585771
L267720057 195085771
L267577200 195300057
L267434342 195442914
L267291485 195514342
" />
<path d="M269862914 195014342
L268577200 196942914
" />
<path d="M271148628 196585771
L270291485 196585771
" />
<path d="M270720057 196585771
L270720057 195085771
L270577200 195300057
L270434342 195442914
L270291485 195514342
" />
</g></g>
<g style="fill:#000000; fill-opacity:0.0; 
stroke:#000000; stroke-width:21200.000000; stroke-opacity:1; 
stroke-linecap:round; stroke-linejoin:round;">
</g>
<g style="fill:#000000; fill-opacity:0.0; 
stroke:#000000; stroke-width:150000.000000; stroke-opacity:1; 
stroke-linecap:round; stroke-linejoin:round;">
<path d="M177002200 187507200
L285002200 187507200
" />
</g>
<g style="fill:#000000; fill-opacity:0.0; 
stroke:#000000; stroke-width:21200.000000; stroke-opacity:1; 
stroke-linecap:round; stroke-linejoin:round;">
</g>
<g style="fill:#000000; fill-opacity:0.0; 
stroke:#000000; stroke-width:400000.000000; stroke-opacity:1; 
stroke-linecap:round; stroke-linejoin:round;">
<text x="178002200.000000" y="190307200.000000"
textLength="9409643.000000" font-size="2666666.000000" lengthAdjust="spacingAndGlyphs"
text-anchor="start" opacity="0">Title: </text>
<g class="stroked-text"><desc>Title: </desc>
<path d="M178714580 188211961
L179857438 188211961
" />
<path d="M179036009 190211961
L179286009 188211961
" />
<path d="M180274104 190211961
L180440771 188878628
" />
<path d="M180524104 188211961
L180416961 188307200
L180500295 188402438
L180607438 188307200
L180524104 188211961
L180500295 188402438
" />
<path d="M181107438 188878628
L181869342 188878628
" />
<path d="M181476485 188211961
L181262200 189926247
L181333628 190116723
L181512200 190211961
L181702676 190211961
" />
<path d="M182655057 190211961
L182476485 190116723
L182405057 189926247
L182619342 188211961
" />
<path d="M184190771 190116723
L183988390 190211961
L183607438 190211961
L183428866 190116723
L183357438 189926247
L183452676 189164342
L183571723 188973866
L183774104 188878628
L184155057 188878628
L184333628 188973866
L184405057 189164342
L184381247 189354819
L183405057 189545295
" />
<path d="M185155057 190021485
L185238390 190116723
L185131247 190211961
L185047914 190116723
L185155057 190021485
L185131247 190211961
" />
<path d="M185286009 188973866
L185369342 189069104
L185262200 189164342
L185178866 189069104
L185286009 188973866
L185262200 189164342
" />
</g></g>
<g style="fill:#000000; fill-opacity:0.0; 
stroke:#000000; stroke-width:21200.000000; stroke-opacity:1; 
stroke-linecap:round; stroke-linejoin:round;">
</g>
<g style="fill:#000000; fill-opacity:0.0; 
stroke:#000000; stroke-width:150000.000000; stroke-opacity:1; 
stroke-linecap:round; stroke-linejoin:round;">
<text x="178002200.000000" y="186457200.000000"
textLength="34520000.000000" font-size="2000000.000000" lengthAdjust="spacingAndGlyphs"
text-anchor="start" opacity="0">File: CircuitPWMFan.kicad_pcb</text>
<g class="stroked-text"><desc>File: CircuitPWMFan.kicad_pcb</desc>
<path d="M178934342 185600057
L178434342 185600057
" />
<path d="M178434342 186385771
L178434342 184885771
L179148628 184885771
" />
<path d="M179720057 186385771
L179720057 185385771
" />
<path d="M179720057 184885771
L179648628 184957200
L179720057 185028628
L179791485 184957200
L179720057 184885771
L179720057 185028628
" />
<path d="M180648628 186385771
L180505771 186314342
L180434342 186171485
L180434342 184885771
" />
<path d="M181791485 186314342
L181648628 186385771
L181362914 186385771
L181220057 186314342
L181148628 186171485
L181148628 185600057
L181220057 185457200
L181362914 185385771
L181648628 185385771
L181791485 185457200
L181862914 185600057
L181862914 185742914
L181148628 185885771
" />
<path d="M182505771 186242914
L182577200 186314342
L182505771 186385771
L182434342 186314342
L182505771 186242914
L182505771 186385771
" />
<path d="M182505771 185457200
L182577200 185528628
L182505771 185600057
L182434342 185528628
L182505771 185457200
L182505771 185600057
" />
<path d="M185220057 186242914
L185148628 186314342
L184934342 186385771
L184791485 186385771
L184577200 186314342
L184434342 186171485
L184362914 186028628
L184291485 185742914
L184291485 185528628
L184362914 185242914
L184434342 185100057
L184577200 184957200
L184791485 184885771
L184934342 184885771
L185148628 184957200
L185220057 185028628
" />
<path d="M185862914 186385771
L185862914 185385771
" />
<path d="M185862914 184885771
L185791485 184957200
L185862914 185028628
L185934342 184957200
L185862914 184885771
L185862914 185028628
" />
<path d="M186577200 186385771
L186577200 185385771
" />
<path d="M186577200 185671485
L186648628 185528628
L186720057 185457200
L186862914 185385771
L187005771 185385771
" />
<path d="M188148628 186314342
L188005771 186385771
L187720057 186385771
L187577200 186314342
L187505771 186242914
L187434342 186100057
L187434342 185671485
L187505771 185528628
L187577200 185457200
L187720057 185385771
L188005771 185385771
L188148628 185457200
" />
<path d="M189434342 185385771
L189434342 186385771
" />
<path d="M188791485 185385771
L188791485 186171485
L188862914 186314342
L189005771 186385771
L189220057 186385771
L189362914 186314342
L189434342 186242914
" />
<path d="M190148628 186385771
L190148628 185385771
" />
<path d="M190148628 184885771
L190077200 184957200
L190148628 185028628
L190220057 184957200
L190148628 184885771
L190148628 185028628
" />
<path d="M190648628 185385771
L191220057 185385771
" />
<path d="M190862914 184885771
L190862914 186171485
L190934342 186314342
L191077200 186385771
L191220057 186385771
" />
<path d="M191720057 186385771
L191720057 184885771
L192291485 184885771
L192434342 184957200
L192505771 185028628
L192577200 185171485
L192577200 185385771
L192505771 185528628
L192434342 185600057
L192291485 185671485
L191720057 185671485
" />
<path d="M193077200 184885771
L193434342 186385771
L193720057 185314342
L194005771 186385771
L194362914 184885771
" />
<path d="M194934342 186385771
L194934342 184885771
L195434342 185957200
L195934342 184885771
L195934342 186385771
" />
<path d="M197148628 185600057
L196648628 185600057
" />
<path d="M196648628 186385771
L196648628 184885771
L197362914 184885771
" />
<path d="M198577200 186385771
L198577200 185600057
L198505771 185457200
L198362914 185385771
L198077200 185385771
L197934342 185457200
" />
<path d="M198577200 186314342
L198434342 186385771
L198077200 186385771
L197934342 186314342
L197862914 186171485
L197862914 186028628
L197934342 185885771
L198077200 185814342
L198434342 185814342
L198577200 185742914
" />
<path d="M199291485 185385771
L199291485 186385771
" />
<path d="M199291485 185528628
L199362914 185457200
L199505771 185385771
L199720057 185385771
L199862914 185457200
L199934342 185600057
L199934342 186385771
" />
<path d="M200648628 186242914
L200720057 186314342
L200648628 186385771
L200577200 186314342
L200648628 186242914
L200648628 186385771
" />
<path d="M201362914 186385771
L201362914 184885771
" />
<path d="M201505771 185814342
L201934342 186385771
" />
<path d="M201934342 185385771
L201362914 185957200
" />
<path d="M202577200 186385771
L202577200 185385771
" />
<path d="M202577200 184885771
L202505771 184957200
L202577200 185028628
L202648628 184957200
L202577200 184885771
L202577200 185028628
" />
<path d="M203934342 186314342
L203791485 186385771
L203505771 186385771
L203362914 186314342
L203291485 186242914
L203220057 186100057
L203220057 185671485
L203291485 185528628
L203362914 185457200
L203505771 185385771
L203791485 185385771
L203934342 185457200
" />
<path d="M205220057 186385771
L205220057 185600057
L205148628 185457200
L205005771 185385771
L204720057 185385771
L204577200 185457200
" />
<path d="M205220057 186314342
L205077200 186385771
L204720057 186385771
L204577200 186314342
L204505771 186171485
L204505771 186028628
L204577200 185885771
L204720057 185814342
L205077200 185814342
L205220057 185742914
" />
<path d="M206577200 186385771
L206577200 184885771
" />
<path d="M206577200 186314342
L206434342 186385771
L206148628 186385771
L206005771 186314342
L205934342 186242914
L205862914 186100057
L205862914 185671485
L205934342 185528628
L206005771 185457200
L206148628 185385771
L206434342 185385771
L206577200 185457200
" />
<path d="M206934342 186528628
L208077200 186528628
" />
<path d="M208434342 185385771
L208434342 186885771
" />
<path d="M208434342 185457200
L208577200 185385771
L208862914 185385771
L209005771 185457200
L209077200 185528628
L209148628 185671485
L209148628 186100057
L209077200 186242914
L209005771 186314342
L208862914 186385771
L208577200 186385771
L208434342 186314342
" />
<path d="M210434342 186314342
L210291485 186385771
L210005771 186385771
L209862914 186314342
L209791485 186242914
L209720057 186100057
L209720057 185671485
L209791485 185528628
L209862914 185457200
L210005771 185385771
L210291485 185385771
L210434342 185457200
" />
<path d="M211077200 186385771
L211077200 184885771
" />
<path d="M211077200 185457200
L211220057 185385771
L211505771 185385771
L211648628 185457200
L211720057 185528628
L211791485 185671485
L211791485 186100057
L211720057 186242914
L211648628 186314342
L211505771 186385771
L211220057 186385771
L211077200 186314342
" />
</g></g>
<g style="fill:#000000; fill-opacity:0.0; 
stroke:#000000; stroke-width:21200.000000; stroke-opacity:1; 
stroke-linecap:round; stroke-linejoin:round;">
</g>
<g style="fill:#000000; fill-opacity:0.0; 
stroke:#000000; stroke-width:150000.000000; stroke-opacity:1; 
stroke-linecap:round; stroke-linejoin:round;">
<path d="M177002200 181507200
L285002200 181507200
" />
</g>
<g style="fill:#000000; fill-opacity:0.0; 
stroke:#000000; stroke-width:21200.000000; stroke-opacity:1; 
stroke-linecap:round; stroke-linejoin:round;">
</g>
<g style="fill:#000000; fill-opacity:0.0; 
stroke:#000000; stroke-width:150000.000000; stroke-opacity:1; 
stroke-linecap:round; stroke-linejoin:round;">
<text x="178002200.000000" y="183757200.000000"
textLength="8221429.000000" font-size="2000000.000000" lengthAdjust="spacingAndGlyphs"
text-anchor="start" opacity="0">Sheet: </text>
<g class="stroked-text"><desc>Sheet: </desc>
<path d="M178362914 183614342
L178577200 183685771
L178934342 183685771
L179077200 183614342
L179148628 183542914
L179220057 183400057
L179220057 183257200
L179148628 183114342
L179077200 183042914
L178934342 182971485
L178648628 182900057
L178505771 182828628
L178434342 182757200
L178362914 182614342
L178362914 182471485
L178434342 182328628
L178505771 182257200
L178648628 182185771
L179005771 182185771
L179220057 182257200
" />
<path d="M179862914 183685771
L179862914 182185771
" />
<path d="M180505771 183685771
L180505771 182900057
L180434342 182757200
L180291485 182685771
L180077200 182685771
L179934342 182757200
L179862914 182828628
" />
<path d="M181791485 183614342
L181648628 183685771
L181362914 183685771
L181220057 183614342
L181148628 183471485
L181148628 182900057
L181220057 182757200
L181362914 182685771
L181648628 182685771
L181791485 182757200
L181862914 182900057
L181862914 183042914
L181148628 183185771
" />
<path d="M183077200 183614342
L182934342 183685771
L182648628 183685771
L182505771 183614342
L182434342 183471485
L182434342 182900057
L182505771 182757200
L182648628 182685771
L182934342 182685771
L183077200 182757200
L183148628 182900057
L183148628 183042914
L182434342 183185771
" />
<path d="M183577200 182685771
L184148628 182685771
" />
<path d="M183791485 182185771
L183791485 183471485
L183862914 183614342
L184005771 183685771
L184148628 183685771
" />
<path d="M184648628 183542914
L184720057 183614342
L184648628 183685771
L184577200 183614342
L184648628 183542914
L184648628 183685771
" />
<path d="M184648628 182757200
L184720057 182828628
L184648628 182900057
L184577200 182828628
L184648628 182757200
L184648628 182900057
" />
</g></g>
<g style="fill:#000000; fill-opacity:0.0; 
stroke:#000000; stroke-width:21200.000000; stroke-opacity:1; 
stroke-linecap:round; stroke-linejoin:round;">
</g>
<g style="fill:#000000; fill-opacity:0.0; 
stroke:#000000; stroke-width:300000.000000; stroke-opacity:1; 
stroke-linecap:round; stroke-linejoin:round;">
<text x="178002200.000000" y="180757200.000000"
textLength="150000.000000" font-size="2000000.000000" lengthAdjust="spacingAndGlyphs"
text-anchor="start" opacity="0"></text>
<g class="stroked-text"><desc></desc>
</g></g>
<g style="fill:#000000; fill-opacity:0.0; 
stroke:#000000; stroke-width:21200.000000; stroke-opacity:1; 
stroke-linecap:round; stroke-linejoin:round;">
</g>
<g style="fill:#000000; fill-opacity:0.0; 
stroke:#000000; stroke-width:150000.000000; stroke-opacity:1; 
stroke-linecap:round; stroke-linejoin:round;">
<text x="178002200.000000" y="177757200.000000"
textLength="300000.000000" font-size="2000000.000000" lengthAdjust="spacingAndGlyphs"
text-anchor="start" opacity="0"></text>
<g class="stroked-text"><desc></desc>
</g></g>
<g style="fill:#000000; fill-opacity:0.0; 
stroke:#000000; stroke-width:21200.000000; stroke-opacity:1; 
stroke-linecap:round; stroke-linejoin:round;">
</g>
<g style="fill:#000000; fill-opacity:0.0; 
stroke:#000000; stroke-width:150000.000000; stroke-opacity:1; 
stroke-linecap:round; stroke-linejoin:round;">
<text x="178002200.000000" y="174757200.000000"
textLength="150000.000000" font-size="2000000.000000" lengthAdjust="spacingAndGlyphs"
text-anchor="start" opacity="0"></text>
<g class="stroked-text"><desc></desc>
</g></g>
<g style="fill:#000000; fill-opacity:0.0; 
stroke:#000000; stroke-width:21200.000000; stroke-opacity:1; 
stroke-linecap:round; stroke-linejoin:round;">
</g>
<g style="fill:#000000; fill-opacity:0.0; 
stroke:#000000; stroke-width:150000.000000; stroke-opacity:1; 
stroke-linecap:round; stroke-linejoin:round;">
<text x="178002200.000000" y="171757200.000000"
textLength="150000.000000" font-size="2000000.000000" lengthAdjust="spacingAndGlyphs"
text-anchor="start" opacity="0"></text>
<g class="stroked-text"><desc></desc>
</g></g>
<g style="fill:#000000; fill-opacity:0.0; 
stroke:#000000; stroke-width:21200.000000; stroke-opacity:1; 
stroke-linecap:round; stroke-linejoin:round;">
</g>
<g style="fill:#000000; fill-opacity:0.0; 
stroke:#000000; stroke-width:150000.000000; stroke-opacity:1; 
stroke-linecap:round; stroke-linejoin:round;">
<text x="178002200.000000" y="168757200.000000"
textLength="150000.000000" font-size="2000000.000000" lengthAdjust="spacingAndGlyphs"
text-anchor="start" opacity="0"></text>
<g class="stroked-text"><desc></desc>
</g></g>
<g style="fill:#000000; fill-opacity:0.0; 
stroke:#000000; stroke-width:21200.000000; stroke-opacity:1; 
stroke-linecap:round; stroke-linejoin:round;">
</g>
<g style="fill:#000000; fill-opacity:0.0; 
stroke:#000000; stroke-width:150000.000000; stroke-opacity:1; 
stroke-linecap:round; stroke-linejoin:round;">
<path d="M197002200 191507200
L197002200 194507200
" />
</g>
<g style="fill:#000000; fill-opacity:0.0; 
stroke:#000000; stroke-width:21200.000000; stroke-opacity:1; 
stroke-linecap:round; stroke-linejoin:round;">
</g>
<g style="fill:#000000; fill-opacity:0.0; 
stroke:#000000; stroke-width:150000.000000; stroke-opacity:1; 
stroke-linecap:round; stroke-linejoin:round;">
<path d="M261002200 191507200
L261002200 198007200
" />
</g>
<g style="fill:#AFAFAF; fill-opacity:0.0; 
stroke:#AFAFAF; stroke-width:150000.000000; stroke-opacity:1; 
stroke-linecap:round; stroke-linejoin:round;">
<text x="45720000.000000" y="30869000.000000"
textLength="11340476.000000" font-size="1333333.000000" lengthAdjust="spacingAndGlyphs"
text-anchor="middle" opacity="0">LM7805_TO220</text>
<g class="stroked-text"><desc>LM7805_TO220</desc>
<path d="M40839047 30821380
L40362857 30821380
L40362857 29821380
" />
<path d="M41172380 30821380
L41172380 29821380
L41505714 30535666
L41839047 29821380
L41839047 30821380
" />
<path d="M42220000 29821380
L42886666 29821380
L42458095 30821380
" />
<path d="M43410476 30249952
L43315238 30202333
L43267619 30154714
L43220000 30059476
L43220000 30011857
L43267619 29916619
L43315238 29869000
L43410476 29821380
L43600952 29821380
L43696190 29869000
L43743809 29916619
L43791428 30011857
L43791428 30059476
L43743809 30154714
L43696190 30202333
L43600952 30249952
L43410476 30249952
L43315238 30297571
L43267619 30345190
L43220000 30440428
L43220000 30630904
L43267619 30726142
L43315238 30773761
L43410476 30821380
L43600952 30821380
L43696190 30773761
L43743809 30726142
L43791428 30630904
L43791428 30440428
L43743809 30345190
L43696190 30297571
L43600952 30249952
" />
<path d="M44410476 29821380
L44505714 29821380
L44600952 29869000
L44648571 29916619
L44696190 30011857
L44743809 30202333
L44743809 30440428
L44696190 30630904
L44648571 30726142
L44600952 30773761
L44505714 30821380
L44410476 30821380
L44315238 30773761
L44267619 30726142
L44220000 30630904
L44172380 30440428
L44172380 30202333
L44220000 30011857
L44267619 29916619
L44315238 29869000
L44410476 29821380
" />
<path d="M45648571 29821380
L45172380 29821380
L45124761 30297571
L45172380 30249952
L45267619 30202333
L45505714 30202333
L45600952 30249952
L45648571 30297571
L45696190 30392809
L45696190 30630904
L45648571 30726142
L45600952 30773761
L45505714 30821380
L45267619 30821380
L45172380 30773761
L45124761 30726142
" />
<path d="M45886666 30916619
L46648571 30916619
" />
<path d="M46743809 29821380
L47315238 29821380
" />
<path d="M47029523 30821380
L47029523 29821380
" />
<path d="M47839047 29821380
L48029523 29821380
L48124761 29869000
L48220000 29964238
L48267619 30154714
L48267619 30488047
L48220000 30678523
L48124761 30773761
L48029523 30821380
L47839047 30821380
L47743809 30773761
L47648571 30678523
L47600952 30488047
L47600952 30154714
L47648571 29964238
L47743809 29869000
L47839047 29821380
" />
<path d="M48648571 29916619
L48696190 29869000
L48791428 29821380
L49029523 29821380
L49124761 29869000
L49172380 29916619
L49220000 30011857
L49220000 30107095
L49172380 30249952
L48600952 30821380
L49220000 30821380
" />
<path d="M49600952 29916619
L49648571 29869000
L49743809 29821380
L49981904 29821380
L50077142 29869000
L50124761 29916619
L50172380 30011857
L50172380 30107095
L50124761 30249952
L49553333 30821380
L50172380 30821380
" />
<path d="M50791428 29821380
L50886666 29821380
L50981904 29869000
L51029523 29916619
L51077142 30011857
L51124761 30202333
L51124761 30440428
L51077142 30630904
L51029523 30726142
L50981904 30773761
L50886666 30821380
L50791428 30821380
L50696190 30773761
L50648571 30726142
L50600952 30630904
L50553333 30440428
L50553333 30202333
L50600952 30011857
L50648571 29916619
L50696190 29869000
L50791428 29821380
" />
</g><text x="45720000.000000" y="24099000.000000"
textLength="2195000.000000" font-size="1333333.000000" lengthAdjust="spacingAndGlyphs"
text-anchor="middle" opacity="0">U2</text>
<g class="stroked-text"><desc>U2</desc>
<path d="M44958095 23051380
L44958095 23860904
L45005714 23956142
L45053333 24003761
L45148571 24051380
L45339047 24051380
L45434285 24003761
L45481904 23956142
L45529523 23860904
L45529523 23051380
" />
<path d="M45958095 23146619
L46005714 23099000
L46100952 23051380
L46339047 23051380
L46434285 23099000
L46481904 23146619
L46529523 23241857
L46529523 23337095
L46481904 23479952
L45910476 24051380
L46529523 24051380
" />
</g><g transform="rotate(-90.000000 64824000.000000 29200000.000000)">
<text x="64824000.000000" y="29700000.000000"
textLength="10575952.000000" font-size="1333333.000000" lengthAdjust="spacingAndGlyphs"
text-anchor="middle" opacity="0">ATtiny85-20P</text>
</g>
<g class="stroked-text"><desc>ATtiny85-20P</desc>
<path d="M64990666 34200000
L64990666 33723809
" />
<path d="M65276380 34295238
L64276380 33961904
L65276380 33628571
" />
<path d="M64276380 33438095
L64276380 32866666
" />
<path d="M65276380 33152380
L64276380 33152380
" />
<path d="M64609714 32676190
L64609714 32295238
" />
<path d="M64276380 32533333
L65133523 32533333
L65228761 32485714
L65276380 32390476
L65276380 32295238
" />
<path d="M65276380 31961904
L64609714 31961904
" />
<path d="M64276380 31961904
L64324000 32009523
L64371619 31961904
L64324000 31914285
L64276380 31961904
L64371619 31961904
" />
<path d="M64609714 31485714
L65276380 31485714
" />
<path d="M64704952 31485714
L64657333 31438095
L64609714 31342857
L64609714 31200000
L64657333 31104761
L64752571 31057142
L65276380 31057142
" />
<path d="M64609714 30676190
L65276380 30438095
" />
<path d="M64609714 30200000
L65276380 30438095
L65514476 30533333
L65562095 30580952
L65609714 30676190
" />
<path d="M64704952 29676190
L64657333 29771428
L64609714 29819047
L64514476 29866666
L64466857 29866666
L64371619 29819047
L64324000 29771428
L64276380 29676190
L64276380 29485714
L64324000 29390476
L64371619 29342857
L64466857 29295238
L64514476 29295238
L64609714 29342857
L64657333 29390476
L64704952 29485714
L64704952 29676190
L64752571 29771428
L64800190 29819047
L64895428 29866666
L65085904 29866666
L65181142 29819047
L65228761 29771428
L65276380 29676190
L65276380 29485714
L65228761 29390476
L65181142 29342857
L65085904 29295238
L64895428 29295238
L64800190 29342857
L64752571 29390476
L64704952 29485714
" />
<path d="M64276380 28390476
L64276380 28866666
L64752571 28914285
L64704952 28866666
L64657333 28771428
L64657333 28533333
L64704952 28438095
L64752571 28390476
L64847809 28342857
L65085904 28342857
L65181142 28390476
L65228761 28438095
L65276380 28533333
L65276380 28771428
L65228761 28866666
L65181142 28914285
" />
<path d="M64895428 27914285
L64895428 27152380
" />
<path d="M64371619 26723809
L64324000 26676190
L64276380 26580952
L64276380 26342857
L64324000 26247619
L64371619 26200000
L64466857 26152380
L64562095 26152380
L64704952 26200000
L65276380 26771428
L65276380 26152380
" />
<path d="M64276380 25533333
L64276380 25438095
L64324000 25342857
L64371619 25295238
L64466857 25247619
L64657333 25200000
L64895428 25200000
L65085904 25247619
L65181142 25295238
L65228761 25342857
L65276380 25438095
L65276380 25533333
L65228761 25628571
L65181142 25676190
L65085904 25723809
L64895428 25771428
L64657333 25771428
L64466857 25723809
L64371619 25676190
L64324000 25628571
L64276380 25533333
" />
<path d="M65276380 24771428
L64276380 24771428
L64276380 24390476
L64324000 24295238
L64371619 24247619
L64466857 24200000
L64609714 24200000
L64704952 24247619
L64752571 24295238
L64800190 24390476
L64800190 24771428
" />
</g><g transform="rotate(-90.000000 58684000.000000 29200000.000000)">
<text x="58684000.000000" y="29700000.000000"
textLength="2195000.000000" font-size="1333333.000000" lengthAdjust="spacingAndGlyphs"
text-anchor="middle" opacity="0">U1</text>
</g>
<g class="stroked-text"><desc>U1</desc>
<path d="M58136380 29961904
L58945904 29961904
L59041142 29914285
L59088761 29866666
L59136380 29771428
L59136380 29580952
L59088761 29485714
L59041142 29438095
L58945904 29390476
L58136380 29390476
" />
<path d="M59136380 28390476
L59136380 28961904
" />
<path d="M59136380 28676190
L58136380 28676190
L58279238 28771428
L58374476 28866666
L58422095 28961904
" />
</g><text x="58650000.000000" y="46636000.000000"
textLength="18766429.000000" font-size="1333333.000000" lengthAdjust="spacingAndGlyphs"
text-anchor="middle" opacity="0">PTA6043-2015DP-B103</text>
<g class="stroked-text"><desc>PTA6043-2015DP-B103</desc>
<path d="M49602380 46588380
L49602380 45588380
L49983333 45588380
L50078571 45636000
L50126190 45683619
L50173809 45778857
L50173809 45921714
L50126190 46016952
L50078571 46064571
L49983333 46112190
L49602380 46112190
" />
<path d="M50459523 45588380
L51030952 45588380
" />
<path d="M50745238 46588380
L50745238 45588380
" />
<path d="M51316666 46302666
L51792857 46302666
" />
<path d="M51221428 46588380
L51554761 45588380
L51888095 46588380
" />
<path d="M52650000 45588380
L52459523 45588380
L52364285 45636000
L52316666 45683619
L52221428 45826476
L52173809 46016952
L52173809 46397904
L52221428 46493142
L52269047 46540761
L52364285 46588380
L52554761 46588380
L52650000 46540761
L52697619 46493142
L52745238 46397904
L52745238 46159809
L52697619 46064571
L52650000 46016952
L52554761 45969333
L52364285 45969333
L52269047 46016952
L52221428 46064571
L52173809 46159809
" />
<path d="M53364285 45588380
L53459523 45588380
L53554761 45636000
L53602380 45683619
L53650000 45778857
L53697619 45969333
L53697619 46207428
L53650000 46397904
L53602380 46493142
L53554761 46540761
L53459523 46588380
L53364285 46588380
L53269047 46540761
L53221428 46493142
L53173809 46397904
L53126190 46207428
L53126190 45969333
L53173809 45778857
L53221428 45683619
L53269047 45636000
L53364285 45588380
" />
<path d="M54554761 45921714
L54554761 46588380
" />
<path d="M54316666 45540761
L54078571 46255047
L54697619 46255047
" />
<path d="M54983333 45588380
L55602380 45588380
L55269047 45969333
L55411904 45969333
L55507142 46016952
L55554761 46064571
L55602380 46159809
L55602380 46397904
L55554761 46493142
L55507142 46540761
L55411904 46588380
L55126190 46588380
L55030952 46540761
L54983333 46493142
" />
<path d="M56030952 46207428
L56792857 46207428
" />
<path d="M57221428 45683619
L57269047 45636000
L57364285 45588380
L57602380 45588380
L57697619 45636000
L57745238 45683619
L57792857 45778857
L57792857 45874095
L57745238 46016952
L57173809 46588380
L57792857 46588380
" />
<path d="M58411904 45588380
L58507142 45588380
L58602380 45636000
L58650000 45683619
L58697619 45778857
L58745238 45969333
L58745238 46207428
L58697619 46397904
L58650000 46493142
L58602380 46540761
L58507142 46588380
L58411904 46588380
L58316666 46540761
L58269047 46493142
L58221428 46397904
L58173809 46207428
L58173809 45969333
L58221428 45778857
L58269047 45683619
L58316666 45636000
L58411904 45588380
" />
<path d="M59697619 46588380
L59126190 46588380
" />
<path d="M59411904 46588380
L59411904 45588380
L59316666 45731238
L59221428 45826476
L59126190 45874095
" />
<path d="M60602380 45588380
L60126190 45588380
L60078571 46064571
L60126190 46016952
L60221428 45969333
L60459523 45969333
L60554761 46016952
L60602380 46064571
L60650000 46159809
L60650000 46397904
L60602380 46493142
L60554761 46540761
L60459523 46588380
L60221428 46588380
L60126190 46540761
L60078571 46493142
" />
<path d="M61078571 46588380
L61078571 45588380
L61316666 45588380
L61459523 45636000
L61554761 45731238
L61602380 45826476
L61650000 46016952
L61650000 46159809
L61602380 46350285
L61554761 46445523
L61459523 46540761
L61316666 46588380
L61078571 46588380
" />
<path d="M62078571 46588380
L62078571 45588380
L62459523 45588380
L62554761 45636000
L62602380 45683619
L62650000 45778857
L62650000 45921714
L62602380 46016952
L62554761 46064571
L62459523 46112190
L62078571 46112190
" />
<path d="M63078571 46207428
L63840476 46207428
" />
<path d="M64650000 46064571
L64792857 46112190
L64840476 46159809
L64888095 46255047
L64888095 46397904
L64840476 46493142
L64792857 46540761
L64697619 46588380
L64316666 46588380
L64316666 45588380
L64650000 45588380
L64745238 45636000
L64792857 45683619
L64840476 45778857
L64840476 45874095
L64792857 45969333
L64745238 46016952
L64650000 46064571
L64316666 46064571
" />
<path d="M65840476 46588380
L65269047 46588380
" />
<path d="M65554761 46588380
L65554761 45588380
L65459523 45731238
L65364285 45826476
L65269047 45874095
" />
<path d="M66459523 45588380
L66554761 45588380
L66650000 45636000
L66697619 45683619
L66745238 45778857
L66792857 45969333
L66792857 46207428
L66745238 46397904
L66697619 46493142
L66650000 46540761
L66554761 46588380
L66459523 46588380
L66364285 46540761
L66316666 46493142
L66269047 46397904
L66221428 46207428
L66221428 45969333
L66269047 45778857
L66316666 45683619
L66364285 45636000
L66459523 45588380
" />
<path d="M67126190 45588380
L67745238 45588380
L67411904 45969333
L67554761 45969333
L67650000 46016952
L67697619 46064571
L67745238 46159809
L67745238 46397904
L67697619 46493142
L67650000 46540761
L67554761 46588380
L67269047 46588380
L67173809 46540761
L67126190 46493142
" />
</g><text x="58650000.000000" y="40886000.000000"
textLength="2147381.000000" font-size="1333333.000000" lengthAdjust="spacingAndGlyphs"
text-anchor="middle" opacity="0">R2</text>
<g class="stroked-text"><desc>R2</desc>
<path d="M58483333 40838380
L58150000 40362190
" />
<path d="M57911904 40838380
L57911904 39838380
L58292857 39838380
L58388095 39886000
L58435714 39933619
L58483333 40028857
L58483333 40171714
L58435714 40266952
L58388095 40314571
L58292857 40362190
L57911904 40362190
" />
<path d="M58864285 39933619
L58911904 39886000
L59007142 39838380
L59245238 39838380
L59340476 39886000
L59388095 39933619
L59435714 40028857
L59435714 40124095
L59388095 40266952
L58816666 40838380
L59435714 40838380
" />
</g><text x="73914000.000000" y="31572000.000000"
textLength="3052143.000000" font-size="1333333.000000" lengthAdjust="spacingAndGlyphs"
text-anchor="middle" opacity="0">110</text>
<g class="stroked-text"><desc>110</desc>
<path d="M73247333 31524380
L72675904 31524380
" />
<path d="M72961619 31524380
L72961619 30524380
L72866380 30667238
L72771142 30762476
L72675904 30810095
" />
<path d="M74199714 31524380
L73628285 31524380
" />
<path d="M73914000 31524380
L73914000 30524380
L73818761 30667238
L73723523 30762476
L73628285 30810095
" />
<path d="M74818761 30524380
L74914000 30524380
L75009238 30572000
L75056857 30619619
L75104476 30714857
L75152095 30905333
L75152095 31143428
L75104476 31333904
L75056857 31429142
L75009238 31476761
L74914000 31524380
L74818761 31524380
L74723523 31476761
L74675904 31429142
L74628285 31333904
L74580666 31143428
L74580666 30905333
L74628285 30714857
L74675904 30619619
L74723523 30572000
L74818761 30524380
" />
</g><text x="73914000.000000" y="29202000.000000"
textLength="2147381.000000" font-size="1333333.000000" lengthAdjust="spacingAndGlyphs"
text-anchor="middle" opacity="0">R1</text>
<g class="stroked-text"><desc>R1</desc>
<path d="M73747333 29154380
L73414000 28678190
" />
<path d="M73175904 29154380
L73175904 28154380
L73556857 28154380
L73652095 28202000
L73699714 28249619
L73747333 28344857
L73747333 28487714
L73699714 28582952
L73652095 28630571
L73556857 28678190
L73175904 28678190
" />
<path d="M74699714 29154380
L74128285 29154380
" />
<path d="M74414000 29154380
L74414000 28154380
L74318761 28297238
L74223523 28392476
L74128285 28440095
" />
</g><text x="94742000.000000" y="23570000.000000"
textLength="13480714.000000" font-size="1333333.000000" lengthAdjust="spacingAndGlyphs"
text-anchor="middle" opacity="0">Conn_01x04_Male</text>
<g class="stroked-text"><desc>Conn_01x04_Male</desc>
<path d="M88908666 23427142
L88861047 23474761
L88718190 23522380
L88622952 23522380
L88480095 23474761
L88384857 23379523
L88337238 23284285
L88289619 23093809
L88289619 22950952
L88337238 22760476
L88384857 22665238
L88480095 22570000
L88622952 22522380
L88718190 22522380
L88861047 22570000
L88908666 22617619
" />
<path d="M89480095 23522380
L89384857 23474761
L89337238 23427142
L89289619 23331904
L89289619 23046190
L89337238 22950952
L89384857 22903333
L89480095 22855714
L89622952 22855714
L89718190 22903333
L89765809 22950952
L89813428 23046190
L89813428 23331904
L89765809 23427142
L89718190 23474761
L89622952 23522380
L89480095 23522380
" />
<path d="M90242000 22855714
L90242000 23522380
" />
<path d="M90242000 22950952
L90289619 22903333
L90384857 22855714
L90527714 22855714
L90622952 22903333
L90670571 22998571
L90670571 23522380
" />
<path d="M91146761 22855714
L91146761 23522380
" />
<path d="M91146761 22950952
L91194380 22903333
L91289619 22855714
L91432476 22855714
L91527714 22903333
L91575333 22998571
L91575333 23522380
" />
<path d="M91813428 23617619
L92575333 23617619
" />
<path d="M93003904 22522380
L93099142 22522380
L93194380 22570000
L93242000 22617619
L93289619 22712857
L93337238 22903333
L93337238 23141428
L93289619 23331904
L93242000 23427142
L93194380 23474761
L93099142 23522380
L93003904 23522380
L92908666 23474761
L92861047 23427142
L92813428 23331904
L92765809 23141428
L92765809 22903333
L92813428 22712857
L92861047 22617619
L92908666 22570000
L93003904 22522380
" />
<path d="M94289619 23522380
L93718190 23522380
" />
<path d="M94003904 23522380
L94003904 22522380
L93908666 22665238
L93813428 22760476
L93718190 22808095
" />
<path d="M94622952 23522380
L95146761 22855714
" />
<path d="M94622952 22855714
L95146761 23522380
" />
<path d="M95718190 22522380
L95813428 22522380
L95908666 22570000
L95956285 22617619
L96003904 22712857
L96051523 22903333
L96051523 23141428
L96003904 23331904
L95956285 23427142
L95908666 23474761
L95813428 23522380
L95718190 23522380
L95622952 23474761
L95575333 23427142
L95527714 23331904
L95480095 23141428
L95480095 22903333
L95527714 22712857
L95575333 22617619
L95622952 22570000
L95718190 22522380
" />
<path d="M96908666 22855714
L96908666 23522380
" />
<path d="M96670571 22474761
L96432476 23189047
L97051523 23189047
" />
<path d="M97194380 23617619
L97956285 23617619
" />
<path d="M98194380 23522380
L98194380 22522380
L98527714 23236666
L98861047 22522380
L98861047 23522380
" />
<path d="M99765809 23522380
L99765809 22998571
L99718190 22903333
L99622952 22855714
L99432476 22855714
L99337238 22903333
" />
<path d="M99765809 23474761
L99670571 23522380
L99432476 23522380
L99337238 23474761
L99289619 23379523
L99289619 23284285
L99337238 23189047
L99432476 23141428
L99670571 23141428
L99765809 23093809
" />
<path d="M100384857 23522380
L100289619 23474761
L100242000 23379523
L100242000 22522380
" />
<path d="M101146761 23474761
L101051523 23522380
L100861047 23522380
L100765809 23474761
L100718190 23379523
L100718190 22998571
L100765809 22903333
L100861047 22855714
L101051523 22855714
L101146761 22903333
L101194380 22998571
L101194380 23093809
L100718190 23189047
" />
</g><g transform="rotate(-90.000000 94742000.000000 29210000.000000)">
<text x="94742000.000000" y="29710000.000000"
textLength="1909286.000000" font-size="1333333.000000" lengthAdjust="spacingAndGlyphs"
text-anchor="middle" opacity="0">J2</text>
</g>
<g class="stroked-text"><desc>J2</desc>
<path d="M94194380 29543333
L94908666 29543333
L95051523 29590952
L95146761 29686190
L95194380 29829047
L95194380 29924285
" />
<path d="M94289619 29114761
L94242000 29067142
L94194380 28971904
L94194380 28733809
L94242000 28638571
L94289619 28590952
L94384857 28543333
L94480095 28543333
L94622952 28590952
L95194380 29162380
L95194380 28543333
" />
</g><text x="22606000.000000" y="31532000.000000"
textLength="13480714.000000" font-size="1333333.000000" lengthAdjust="spacingAndGlyphs"
text-anchor="middle" opacity="0">Conn_01x02_Male</text>
<g class="stroked-text"><desc>Conn_01x02_Male</desc>
<path d="M16772666 31389142
L16725047 31436761
L16582190 31484380
L16486952 31484380
L16344095 31436761
L16248857 31341523
L16201238 31246285
L16153619 31055809
L16153619 30912952
L16201238 30722476
L16248857 30627238
L16344095 30532000
L16486952 30484380
L16582190 30484380
L16725047 30532000
L16772666 30579619
" />
<path d="M17344095 31484380
L17248857 31436761
L17201238 31389142
L17153619 31293904
L17153619 31008190
L17201238 30912952
L17248857 30865333
L17344095 30817714
L17486952 30817714
L17582190 30865333
L17629809 30912952
L17677428 31008190
L17677428 31293904
L17629809 31389142
L17582190 31436761
L17486952 31484380
L17344095 31484380
" />
<path d="M18106000 30817714
L18106000 31484380
" />
<path d="M18106000 30912952
L18153619 30865333
L18248857 30817714
L18391714 30817714
L18486952 30865333
L18534571 30960571
L18534571 31484380
" />
<path d="M19010761 30817714
L19010761 31484380
" />
<path d="M19010761 30912952
L19058380 30865333
L19153619 30817714
L19296476 30817714
L19391714 30865333
L19439333 30960571
L19439333 31484380
" />
<path d="M19677428 31579619
L20439333 31579619
" />
<path d="M20867904 30484380
L20963142 30484380
L21058380 30532000
L21106000 30579619
L21153619 30674857
L21201238 30865333
L21201238 31103428
L21153619 31293904
L21106000 31389142
L21058380 31436761
L20963142 31484380
L20867904 31484380
L20772666 31436761
L20725047 31389142
L20677428 31293904
L20629809 31103428
L20629809 30865333
L20677428 30674857
L20725047 30579619
L20772666 30532000
L20867904 30484380
" />
<path d="M22153619 31484380
L21582190 31484380
" />
<path d="M21867904 31484380
L21867904 30484380
L21772666 30627238
L21677428 30722476
L21582190 30770095
" />
<path d="M22486952 31484380
L23010761 30817714
" />
<path d="M22486952 30817714
L23010761 31484380
" />
<path d="M23582190 30484380
L23677428 30484380
L23772666 30532000
L23820285 30579619
L23867904 30674857
L23915523 30865333
L23915523 31103428
L23867904 31293904
L23820285 31389142
L23772666 31436761
L23677428 31484380
L23582190 31484380
L23486952 31436761
L23439333 31389142
L23391714 31293904
L23344095 31103428
L23344095 30865333
L23391714 30674857
L23439333 30579619
L23486952 30532000
L23582190 30484380
" />
<path d="M24296476 30579619
L24344095 30532000
L24439333 30484380
L24677428 30484380
L24772666 30532000
L24820285 30579619
L24867904 30674857
L24867904 30770095
L24820285 30912952
L24248857 31484380
L24867904 31484380
" />
<path d="M25058380 31579619
L25820285 31579619
" />
<path d="M26058380 31484380
L26058380 30484380
L26391714 31198666
L26725047 30484380
L26725047 31484380
" />
<path d="M27629809 31484380
L27629809 30960571
L27582190 30865333
L27486952 30817714
L27296476 30817714
L27201238 30865333
" />
<path d="M27629809 31436761
L27534571 31484380
L27296476 31484380
L27201238 31436761
L27153619 31341523
L27153619 31246285
L27201238 31151047
L27296476 31103428
L27534571 31103428
L27629809 31055809
" />
<path d="M28248857 31484380
L28153619 31436761
L28106000 31341523
L28106000 30484380
" />
<path d="M29010761 31436761
L28915523 31484380
L28725047 31484380
L28629809 31436761
L28582190 31341523
L28582190 30960571
L28629809 30865333
L28725047 30817714
L28915523 30817714
L29010761 30865333
L29058380 30960571
L29058380 31055809
L28582190 31151047
" />
</g><g transform="rotate(-90.000000 22606000.000000 27432000.000000)">
<text x="22606000.000000" y="27932000.000000"
textLength="1909286.000000" font-size="1333333.000000" lengthAdjust="spacingAndGlyphs"
text-anchor="middle" opacity="0">J1</text>
</g>
<g class="stroked-text"><desc>J1</desc>
<path d="M22058380 27765333
L22772666 27765333
L22915523 27812952
L23010761 27908190
L23058380 28051047
L23058380 28146285
" />
<path d="M23058380 26765333
L23058380 27336761
" />
<path d="M23058380 27051047
L22058380 27051047
L22201238 27146285
L22296476 27241523
L22344095 27336761
" />
</g><text x="84328000.000000" y="25242000.000000"
textLength="2909286.000000" font-size="1333333.000000" lengthAdjust="spacingAndGlyphs"
text-anchor="middle" opacity="0">LED</text>
<g class="stroked-text"><desc>LED</desc>
<path d="M83685142 25194380
L83208952 25194380
L83208952 24194380
" />
<path d="M84018476 24670571
L84351809 24670571
" />
<path d="M84494666 25194380
L84018476 25194380
L84018476 24194380
L84494666 24194380
" />
<path d="M84923238 25194380
L84923238 24194380
L85161333 24194380
L85304190 24242000
L85399428 24337238
L85447047 24432476
L85494666 24622952
L85494666 24765809
L85447047 24956285
L85399428 25051523
L85304190 25146761
L85161333 25194380
L84923238 25194380
" />
</g></g>
<g style="fill:#AFAFAF; fill-opacity:0.0; 
stroke:#AFAFAF; stroke-width:200000.000000; stroke-opacity:1; 
stroke-linecap:round; stroke-linejoin:round;">
<text x="84348000.000000" y="29102000.000000"
textLength="1756905.000000" font-size="1066666.000000" lengthAdjust="spacingAndGlyphs"
text-anchor="middle" opacity="0">D1</text>
<g class="stroked-text"><desc>D1</desc>
<path d="M83757523 29063904
L83757523 28263904
L83948000 28263904
L84062285 28302000
L84138476 28378190
L84176571 28454380
L84214666 28606761
L84214666 28721047
L84176571 28873428
L84138476 28949619
L84062285 29025809
L83948000 29063904
L83757523 29063904
" />
<path d="M84976571 29063904
L84519428 29063904
" />
<path d="M84748000 29063904
L84748000 28263904
L84671809 28378190
L84595619 28454380
L84519428 28492476
" />
</g></g>
<g style="fill:#AFAFAF; fill-opacity:0.0; 
stroke:#AFAFAF; stroke-width:150000.000000; stroke-opacity:1; 
stroke-linecap:round; stroke-linejoin:round;">
<g transform="rotate(-90.000000 29524000.000000 28408000.000000)">
<text x="29524000.000000" y="28908000.000000"
textLength="5355238.000000" font-size="1333333.000000" lengthAdjust="spacingAndGlyphs"
text-anchor="middle" opacity="0">0.33uF</text>
</g>
<g class="stroked-text"><desc>0.33uF</desc>
<path d="M28976380 30527047
L28976380 30431809
L29024000 30336571
L29071619 30288952
L29166857 30241333
L29357333 30193714
L29595428 30193714
L29785904 30241333
L29881142 30288952
L29928761 30336571
L29976380 30431809
L29976380 30527047
L29928761 30622285
L29881142 30669904
L29785904 30717523
L29595428 30765142
L29357333 30765142
L29166857 30717523
L29071619 30669904
L29024000 30622285
L28976380 30527047
" />
<path d="M29881142 29765142
L29928761 29717523
L29976380 29765142
L29928761 29812761
L29881142 29765142
L29976380 29765142
" />
<path d="M28976380 29384190
L28976380 28765142
L29357333 29098476
L29357333 28955619
L29404952 28860380
L29452571 28812761
L29547809 28765142
L29785904 28765142
L29881142 28812761
L29928761 28860380
L29976380 28955619
L29976380 29241333
L29928761 29336571
L29881142 29384190
" />
<path d="M28976380 28431809
L28976380 27812761
L29357333 28146095
L29357333 28003238
L29404952 27908000
L29452571 27860380
L29547809 27812761
L29785904 27812761
L29881142 27860380
L29928761 27908000
L29976380 28003238
L29976380 28288952
L29928761 28384190
L29881142 28431809
" />
<path d="M29309714 26955619
L29976380 26955619
" />
<path d="M29309714 27384190
L29833523 27384190
L29928761 27336571
L29976380 27241333
L29976380 27098476
L29928761 27003238
L29881142 26955619
" />
<path d="M29452571 26146095
L29452571 26479428
" />
<path d="M29976380 26479428
L28976380 26479428
L28976380 26003238
" />
</g><g transform="rotate(-90.000000 33274000.000000 28408000.000000)">
<text x="33274000.000000" y="28908000.000000"
textLength="2147381.000000" font-size="1333333.000000" lengthAdjust="spacingAndGlyphs"
text-anchor="middle" opacity="0">C1</text>
</g>
<g class="stroked-text"><desc>C1</desc>
<path d="M33631142 28574666
L33678761 28622285
L33726380 28765142
L33726380 28860380
L33678761 29003238
L33583523 29098476
L33488285 29146095
L33297809 29193714
L33154952 29193714
L32964476 29146095
L32869238 29098476
L32774000 29003238
L32726380 28860380
L32726380 28765142
L32774000 28622285
L32821619 28574666
" />
<path d="M33726380 27622285
L33726380 28193714
" />
<path d="M33726380 27908000
L32726380 27908000
L32869238 28003238
L32964476 28098476
L33012095 28193714
" />
</g></g>
<g style="fill:#AFAFAF; fill-opacity:0.0; 
stroke:#AFAFAF; stroke-width:100000.000000; stroke-opacity:1; 
stroke-linecap:round; stroke-linejoin:round;">
<path d="M50720000 29119000
L50720000 24719000
" />
<path d="M47570000 24719000
L47570000 25989000
" />
<path d="M40720000 25989000
L50720000 25989000
" />
<path d="M50720000 24719000
L40720000 24719000
" />
<path d="M40720000 29119000
L50720000 29119000
" />
<path d="M43870000 24719000
L43870000 25989000
" />
<path d="M40720000 24719000
L40720000 29119000
" />
<path d="M53604000 31375000
L53604000 26025000
" />
<path d="M63764000 26025000
L63764000 32375000
" />
<path d="M53604000 26025000
L63764000 26025000
" />
<path d="M63764000 32375000
L54604000 32375000
" />
<path d="M54604000 32375000
L53604000 31375000
" />
<path d="M22150000 35886000
L96150000 35886000
" />
<path d="M21150000 36886000
L22150000 35886000
" />
<path d="M96150000 44886000
L21150000 44886000
" />
<path d="M21150000 44886000
L21150000 36886000
" />
<path d="M96150000 35886000
L96150000 44886000
" />
<circle cx="94150000.000000" cy="40386000.000000" r="1000000.000000" /> 
<circle cx="23150000.000000" cy="40386000.000000" r="1000000.000000" /> 
<path d="M70104000 28702000
L70764000 28702000
" />
<path d="M77724000 28702000
L77064000 28702000
" />
<path d="M70764000 29952000
L77064000 29952000
" />
<path d="M77064000 29952000
L77064000 27452000
" />
<path d="M70764000 27452000
L70764000 29952000
" />
<path d="M77064000 27452000
L70764000 27452000
" />
<path d="M96012000 33655000
L95377000 34290000
" />
<path d="M93472000 34290000
L93472000 24130000
" />
<path d="M96012000 24130000
L96012000 33655000
" />
<path d="M93472000 24130000
L96012000 24130000
" />
<path d="M95377000 34290000
L93472000 34290000
" />
<path d="M23876000 29972000
L21336000 29972000
" />
<path d="M21336000 25527000
L21971000 24892000
" />
<path d="M21336000 29972000
L21336000 25527000
" />
<path d="M21971000 24892000
L23876000 24892000
" />
<path d="M23876000 24892000
L23876000 29972000
" />
<circle cx="84328000.000000" cy="28702000.000000" r="2500000.000000" /> 
<path d="M86828016.274703 27232333.838513 A2900000.000000 2900000.000000 0.0 1 0 86827999.932575 30171693.960362" />
<path d="M86828000 30171694
L86828000 27232306
" />
<path d="M30774000 32158000
L35774000 32158000
" />
<path d="M35774000 32158000
L35774000 24658000
" />
<path d="M30774000 24658000
L30774000 32158000
" />
<path d="M35774000 24658000
L30774000 24658000
" />
<g >
</g>
<g >
</g>
<g >
</g>
<g >
</g>
<g >
</g>
<g >
</g>
<g >
</g>
<g >
</g>
<g >
</g>
<g >
</g>
<g >
</g>
</g>
<g style="fill:#000000; fill-opacity:0.0; 
stroke:#000000; stroke-width:100000.000000; stroke-opacity:1; 
stroke-linecap:round; stroke-linejoin:round;">
</g>
<g style="fill:#D0D2CD; fill-opacity:0.0; 
stroke:#D0D2CD; stroke-width:100000.000000; stroke-opacity:1; 
stroke-linecap:round; stroke-linejoin:round;">
<path d="M19812000 23622000
L97536000 23622000
" />
<path d="M97536000 23622000
L97536000 46482000
" />
<path d="M97536000 46482000
L19812000 46482000
" />
<path d="M19812000 46482000
L19812000 23622000
" />
<g >
</g>
<g >
</g>
<g >
</g>
<g >
</g>
<g >
</g>
<g >
</g>
<g >
</g>
<g >
</g>
<g >
</g>
<g >
</g>
<g >
</g>
</g> 
</svg>
